<ttFont>
          <CharString index="0">
            260 100 hstem
            65 100 vstem
            165 260 rmoveto
            100 -100 -100 vlineto
            endchar
          </CharString>
          <CharString index="1">
            88 67 -21 46 75 268 75 48 -20 hstem
            88 85 223 85 vstem
            29 103 rmoveto
            57 -57 67 67 rlineto
            -15 26 35 -6 44 hhcurveto
            53 hlineto
            44 35 7 14 27 hvcurveto
            67 -67 57 57 -72 72 rlineto
            8 21 4 25 31 vvcurveto
            98 vlineto
            31 -4 26 -9 21 vhcurveto
            73 73 -57 57 -69 -69 rlineto
            14 -26 -35 7 -43 hhcurveto
            -53 hlineto
            -43 -35 -6 -14 -26 hvcurveto
            -68 68 -57 -57 71 -72 rlineto
            -8 -21 -4 -27 -31 vvcurveto
            -98 vlineto
            -31 4 -26 8 -21 vhcurveto
            296 58 rmoveto
            -40 -25 -25 -50 vhcurveto
            -73 hlineto
            -50 -25 25 40 hvcurveto
            138 vlineto
            40 25 25 50 vhcurveto
            73 hlineto
            50 25 -25 -40 hvcurveto
            endchar
          </CharString>
          <CharString index="2">
            rmoveto
            47 vlineto
            45 -17 30 -31 17 vhcurveto
            hintmask 11101100
            25 18 14 30 39 vvcurveto
            33 vlineto
            82 -55 35 -73 vhcurveto
            -4 hlineto
            -75 -53 -35 -82 hvcurveto
            -33 vlineto
            -39 14 -30 25 -18 vhcurveto
            hintmask 11110010
            -31 -17 -17 -30 -45 vvcurveto
            -47 vlineto
            -83 47 -36 90 vhcurveto
            4 hlineto
            90 47 36 83 hvcurveto
            -73 52 rmoveto
            -54 vlineto
            -38 -17 -16 -38 vhcurveto
            -28 hlineto
            -34 -15 18 36 hvcurveto
            54 vlineto
            33 20 20 33 vhcurveto
            27 hlineto
            33 19 -20 -33 hvcurveto
            -58 261 rmoveto
            hintmask 11101100
            37 13 -15 -39 hvcurveto
            -42 vlineto
            -34 -21 -15 -30 vhcurveto
            -19 hlineto
            -28 2 -18 15 32 vvcurveto
            42 vlineto
            35 10 19 34 vhcurveto
            endchar
          </CharString>
          <CharString index="3">
            303 21 -94 callsubr
            170 85 hintmask 11011110
            705 hmoveto
            500 -95 callsubr
            hintmask 11101110
            -103 callsubr
            170 -425 vlineto
            -440 585 -93 callsubr
          </CharString>
          <CharString index="4">
            -18 -16 -4 -6 -14 hvcurveto
            -222 -80 callsubr
            -80 -65 -75 65 -85 callsubr
            185 -85 callsubr
            return
          </CharString>
          <CharString index="5">
            rmoveto
            45 vlineto
            45 -19 30 -32 17 vhcurveto
            hintmask 11110000
            26 18 18 30 39 vvcurveto
            35 vlineto
            82 -46 35 -83 vhcurveto
            -87 -64 86 hlineto
            38 17 -13 -39 hvcurveto
            -42 vlineto
            -34 -24 -18 -31 vhcurveto
            -63 -64 71 hlineto
            hintmask 11101000
            32 23 -19 -33 hvcurveto
            -55 vlineto
            -38 -21 -12 -35 vhcurveto
            -93 -64 96 hlineto
            91 36 36 83 hvcurveto
            endchar
          </CharString>
          <CharString index="6">
            rmoveto
            64 vlineto
            86 -44 37 -84 vhcurveto
            -64 64 hlineto
            30 20 22 38 vhcurveto
            99 64 -97 hlineto
            -86 -47 -47 -86 hvcurveto
            -234 vlineto
            -86 54 -42 64 vhcurveto
            29 hlineto
            64 54 42 86 hvcurveto
            -128 123 rmoveto
            38 17 -22 -30 hvcurveto
            -78 vlineto
            -30 -11 -27 -38 vhcurveto
            -21 hlineto
            -38 -11 27 30 hvcurveto
            130 vlineto
            endchar
          </CharString>
          <CharString index="7">
            rmoveto
            -61 vlineto
            -86 44 -37 84 vhcurveto
            65 -67 hlineto
            -30 -20 -22 -38 vhcurveto
            -100 -64 98 hlineto
            86 46 47 86 hvcurveto
            234 vlineto
            86 -54 42 -64 vhcurveto
            -29 hlineto
            -64 -54 -42 -86 hvcurveto
            128 -120 rmoveto
            -38 -17 22 30 hvcurveto
            75 vlineto
            30 11 27 38 vhcurveto
            21 hlineto
            38 12 -27 -30 hvcurveto
            -127 vlineto
            endchar
          </CharString>
          <CharString index="8">
            rmoveto
            250 vlineto
            86 -51 42 -75 vhcurveto
            -18 hlineto
            -75 -51 -42 -86 hvcurveto
            -250 vlineto
            -86 51 -42 75 vhcurveto
            18 hlineto
            75 51 42 86 hvcurveto
            -74 -7 rmoveto
            -30 -15 -27 -37 vhcurveto
            -18 hlineto
            -37 -15 27 30 hvcurveto
            264 vlineto
            30 15 27 37 vhcurveto
            18 hlineto
            37 15 -27 -30 hvcurveto
            endchar
          </CharString>
          <CharString index="9">
            64 -162 vlineto
            103 139 rlineto
            40 54 14 13 83 vvcurveto
            23 vlineto
            82 -41 37 -100 vhcurveto
            -79 -64 86 hlineto
            44 17 -19 -30 hvcurveto
            -36 vlineto
            -52 -8 -11 -42 -57 vhcurveto
            -112 -153 rlineto
            -73 vlineto
            endchar
          </CharString>
          <CharString index="10">
            rmoveto
            66 vlineto
            83 -50 36 -73 vhcurveto
            -24 128 137 63 -210 -255 91 hlineto
            32 23 -20 -33 hvcurveto
            -71 vlineto
            -35 -18 -17 -38 vhcurveto
            -98 -64 101 hlineto
            90 37 36 83 hvcurveto
            endchar
          </CharString>
          <CharString index="11">
            rmoveto
            113 -135 rlineto
            88 hlineto
            112 135 rlineto
            -96 hlineto
            -60 -75 -60 75 rlineto
            endchar
          </CharString>
          <CharString index="12">
            -255 95 vlineto
            -88 callsubr
            199 75 -215 hlineto
            return
          </CharString>
          <CharString index="13">
            -21 425 75 115 75 -65 75 hstemhm
            95 85 185 85 return
          </CharString>
          <CharString index="14">
            rmoveto
            -92 callsubr
            -90 -185 vlineto
            endchar
          </CharString>
          <CharString index="15">
            -88 callsubr
            152 hlineto
            -2 -8 0 -8 -9 vvcurveto
            return
          </CharString>
          <CharString index="16">
            18 0 50 600 50 hstem
            50 50 300 50 vstem
            50 hmoveto
            400 700 -400 hlineto
            50 -650 rmoveto
            600 300 -600 vlineto
            endchar
          </CharString>
          <CharString index="17">
            rmoveto
            64 -50 143 -67 vlineto
            -7 -143 rlineto
            -77 hlineto
            73 314 rlineto
            -69 hlineto
            -74 -304 rlineto
            -74 147 -117 74 117 vlineto
            endchar
          </CharString>
          <CharString index="18">
            0 83 36 14 vhcurveto
            10 hlineto
            hintmask 10100000
            20 97 -40 13 hhcurveto
            15 hlineto
            17 71 35 0 hvcurveto
            80 vlineto
            0 -75 -36 -12 vhcurveto
            -10 hlineto
            return
          </CharString>
          <CharString index="19">
            17 13 13 22 vhcurveto
            return
          </CharString>
          <CharString index="20">
            -95 -74 callsubr
            560 -95 callsubr
            return
          </CharString>
          <CharString index="21">
            -114 73 -56 85 vhcurveto
            25 hlineto
            85 73 -69 callsubr
            return
          </CharString>
          <CharString index="22">
            -425 85 425 return
          </CharString>
          <CharString index="23">
            vlineto
            -40 -28 -36 -50 vhcurveto
            -15 hlineto
            -50 -28 36 40 hvcurveto
            return
          </CharString>
          <CharString index="24">
            845 rmoveto
            113 -115 rlineto
            88 hlineto
            112 115 rlineto
            -96 hlineto
            -60 -67 -60 67 rlineto
            return
          </CharString>
          <CharString index="25">
            63 161 63 145 63 hstemhm
            66 73 -64 72 116 72 -64 73 hintmask 11110010
            344 return
          </CharString>
          <CharString index="26">
            64 -74 431 -82 vlineto
            -91 -38 rlineto
            -68 vlineto
            99 39 rlineto
            -364 -91 -64 vlineto
            endchar
          </CharString>
          <CharString index="27">
            hlineto
            -60 -44 -40 -70 hvcurveto
            return
          </CharString>
          <CharString index="28">
            rmoveto
            75 -380 -75 vlineto
            return
          </CharString>
          <CharString index="29">
            64 157 64 146 64 hstemhm
            235 75 -67 74 hintmask 11101000
            317 return
          </CharString>
          <CharString index="30">
            13 275 75 hstem
            410 275 rmoveto
            75 -325 -75 vlineto
            endchar
          </CharString>
          <CharString index="31">
            rmoveto
            81 -229 -65 159 vlineto
            -122 -430 rlineto
            74 hlineto
            endchar
          </CharString>
          <CharString index="32">
            64 187 64 116 64 hstem
            75 73 119 73 vstem
            340 return
          </CharString>
          <CharString index="33">
            rmoveto
            -75 107 vlineto
            60 44 40 70 hvcurveto
            return
          </CharString>
          <CharString index="34">
            64 119 64 184 64 hstem
            70 73 120 72 vstem
            70 return
          </CharString>
          <CharString index="35">
            64 176 64 128 63 hstem
            102 73 73 74 vstem
            322 return
          </CharString>
          <CharString index="36">
            -21 117 64 314 -20 hstem
            223 71 vstem
            344 return
          </CharString>
          <CharString index="37">
            hlineto
            120 50 48 110 hvcurveto
            return
          </CharString>
          <CharString index="38">
            56 114 hvcurveto
            return
          </CharString>
          <CharString index="39">
            64 378 64 hstem
            70 74 122 74 vstem
            340 return
          </CharString>
          <CharString index="40">
            -23 -84 40 -24 hhcurveto
            -15 hlineto
            -19 -78 -35 0 hvcurveto
            return
          </CharString>
          <CharString index="41">
            690 -170 rmoveto
            1020 -600 -1020 vlineto
            return
          </CharString>
          <CharString index="42">
            64 431 -20 hstem
            193 74 vstem
            341 return
          </CharString>
          <CharString index="43">
            64 367 64 hstem
            249 73 vstem
            327 return
          </CharString>
          <CharString index="44">
            vlineto
            -76 46 -24 39 vhcurveto
            50 75 -15 hlineto
            -26 return
          </CharString>
          <CharString index="45">
            -51 -23 -22 -51 vhcurveto
            return
          </CharString>
          <CharString index="46">
            -21 413 -20 hstem
            return
          </CharString>
          <CharString index="47">
            85 171 85 vstem
            return
          </CharString>
          <CharString index="48">
            43 30 -28 -44 hvcurveto
            return
          </CharString>
          <CharString index="49">
            rmoveto
            -115 hlineto
            -103 -147 rlineto
            91 hlineto
            return
          </CharString>
          <CharString index="50">
            vlineto
            -17 -13 -13 -22 vhcurveto
            return
          </CharString>
          <CharString index="51">
            -88 vlineto
            -113 -55 -46 -114 hvcurveto
            return
          </CharString>
          <CharString index="52">
            68 0 75 489 -20 hstem
            465 return
          </CharString>
          <CharString index="53">
            0 75 290 75 184 76 hstem
            return
          </CharString>
          <CharString index="54">
            vlineto
            110 -62 46 -110 vhcurveto
            return
          </CharString>
          <CharString index="55">
            vhcurveto
            -115 -76 125 hlineto
            50 return
          </CharString>
          <CharString index="56">
            -27 179 -21 350 -20 hstem
            return
          </CharString>
          <CharString index="57">
            58 149 -21 492 -20 hstem
            return
          </CharString>
          <CharString index="58">
            vlineto
            40 23 26 50 vhcurveto
            endchar
          </CharString>
          <CharString index="59">
            21 -21 700 -20 return
          </CharString>
          <CharString index="60">
            -56 -114 hvcurveto
            return
          </CharString>
        <CharString name=".notdef">
          -91 callsubr
        </CharString>
        <CharString name=".null">
          -482 endchar
        </CharString>
        <CharString name="A">
          -72 199 -68 callsubr
          327 -99 callsubr
        </CharString>
        <CharString name="AE">
          -107 callsubr
        </CharString>
        <CharString name="Aacute">
          -107 callsubr
        </CharString>
        <CharString name="Acircumflex">
          -107 callsubr
        </CharString>
        <CharString name="Adieresis">
          -107 callsubr
        </CharString>
        <CharString name="Agrave">
          -107 callsubr
        </CharString>
        <CharString name="Aring">
          -107 callsubr
        </CharString>
        <CharString name="Atilde">
          -107 callsubr
        </CharString>
        <CharString name="B">
          -72 205 -65 callsubr
          205 rmoveto
          -81 callsubr
        </CharString>
        <CharString name="C">
          -72 205 -64 callsubr
          205 rmoveto
          -98 callsubr
        </CharString>
        <CharString name="CR">
          -222 endchar
        </CharString>
        <CharString name="Ccedilla">
          -107 callsubr
        </CharString>
        <CharString name="D">
          -72 205 -78 callsubr
          324 -102 callsubr
        </CharString>
        <CharString name="Delta">
          -107 callsubr
        </CharString>
        <CharString name="E">
          -72 226 -71 callsubr
          322 -90 callsubr
        </CharString>
        <CharString name="Eacute">
          -107 callsubr
        </CharString>
        <CharString name="Ecircumflex">
          -107 callsubr
        </CharString>
        <CharString name="Edieresis">
          -107 callsubr
        </CharString>
        <CharString name="Egrave">
          -107 callsubr
        </CharString>
        <CharString name="Eth">
          -107 callsubr
        </CharString>
        <CharString name="Euro">
          -107 callsubr
        </CharString>
        <CharString name="F">
          -72 205 -72 callsubr
          324 -97 callsubr
        </CharString>
        <CharString name="G">
          -72 205 -75 callsubr
          333 -101 callsubr
        </CharString>
        <CharString name="H">
          -72 226 -21 430 65 hstem
          329 619 -76 callsubr
        </CharString>
        <CharString name="I">
          -72 205 -82 callsubr
          324 -105 callsubr
        </CharString>
        <CharString name="Iacute">
          -107 callsubr
        </CharString>
        <CharString name="Icircumflex">
          -107 callsubr
        </CharString>
        <CharString name="Idieresis">
          -107 callsubr
        </CharString>
        <CharString name="Igrave">
          -107 callsubr
        </CharString>
        <CharString name="J">
          -72 206 -73 callsubr
          573 -100 callsubr
        </CharString>
        <CharString name="K">
          68 158 -21 346 -20 hstem
          392 137 rmoveto
          56 56 -116 117 116 117 -56 56 -117 -116 -117 116 -56 -56 116 -117 -116 -117 56 -56 117 116 rlineto
          endchar
        </CharString>
        <CharString name="L">
          82 0 75 550 75 hstem
          124 87 130 87 vstem
          211 hmoveto
          625 130 -525 -63 callsubr
          -7 9 21 hvcurveto
          520 91 75 -474 -75 79 -625 vlineto
          endchar
        </CharString>
        <CharString name="Lslash">
          -107 callsubr
        </CharString>
        <CharString name="M">
          -12 -170 74 721 75 hstem
          425 -170 rmoveto
          74 -299 vlineto
          177 363 -162 358 rlineto
          273 75 -361 -95 hlineto
          155 -338 -168 -343 rlineto
          -94 vlineto
          endchar
        </CharString>
        <CharString name="N">
          248 141 74 186 74 hstem
          48 84 192 82 192 84 cntrmask 00111000
          365 194 rmoveto
          -34 24 39 -19 53 hhcurveto
          50 hlineto
          110 41 62 100 hvcurveto
          15 vlineto
          100 -41 57 -110 vhcurveto
          -50 hlineto
          -53 -37 -19 -34 -24 hvcurveto
          34 -24 -41 19 -53 hhcurveto
          -50 hlineto
          -110 -41 -57 -100 hvcurveto
          -20 vlineto
          -100 41 -57 110 vhcurveto
          50 hlineto
          53 39 19 34 24 hvcurveto
          233 92 rmoveto
          -50 -21 -21 -51 vhcurveto
          -47 hlineto
          -45 -28 31 40 hvcurveto
          50 vlineto
          37 2 28 28 43 hhcurveto
          47 hlineto
          48 22 -18 -45 2 hvcurveto
          -466 -8 rmoveto
          50 21 21 51 vhcurveto
          47 hlineto
          45 28 -31 -40 hvcurveto
          -50 vlineto
          -37 -2 -28 -28 -43 hhcurveto
          -47 hlineto
          -48 -22 18 45 -2 hvcurveto
          endchar
        </CharString>
        <CharString name="Ntilde">
          -107 callsubr
        </CharString>
        <CharString name="O">
          -50 callsubr
          226 86 vstem
          226 128 rmoveto
          86 363 hlineto
          170 -136 rlineto
          102 vlineto
          -213 163 -212 -163 rlineto
          -102 vlineto
          169 135 rlineto
          endchar
        </CharString>
        <CharString name="OE">
          -107 callsubr
        </CharString>
        <CharString name="Oacute">
          -107 callsubr
        </CharString>
        <CharString name="Ocircumflex">
          -107 callsubr
        </CharString>
        <CharString name="Odieresis">
          -107 callsubr
        </CharString>
        <CharString name="Ograve">
          -107 callsubr
        </CharString>
        <CharString name="Omega">
          -107 callsubr
        </CharString>
        <CharString name="Oslash">
          -107 callsubr
        </CharString>
        <CharString name="Otilde">
          -107 callsubr
        </CharString>
        <CharString name="P">
          58 178 -21 172 82 171 -20 hstem
          29 411 rmoveto
          -82 360 vlineto
          -136 -172 rlineto
          105 hlineto
          163 213 -163 212 rlineto
          -105 hlineto
          135 -171 rlineto
          endchar
        </CharString>
        <CharString name="Q">
          58 183 -61 callsubr
          425 162 rmoveto
          60 60 -256 256 217 24 -73 73 -266 -35 -35 -265 73 -73 25 216 rlineto
          endchar
        </CharString>
        <CharString name="R">
          58 187 -61 callsubr
          71 226 rmoveto
          60 -60 256 256 24 -217 73 73 -35 266 -265 35 -73 -73 216 -25 rlineto
          endchar
        </CharString>
        <CharString name="S">
          298 0 79 542 79 hstem
          90 87 426 87 vstem
          690 hmoveto
          700 -600 -700 vlineto
          513 79 rmoveto
          -426 542 426 hlineto
          endchar
        </CharString>
        <CharString name="Scaron">
          -107 callsubr
        </CharString>
        <CharString name="T">
          298 -170 79 862 79 hstem
          90 87 426 87 vstem
          -66 callsubr
          513 79 rmoveto
          -426 862 426 hlineto
          endchar
        </CharString>
        <CharString name="Thorn">
          -107 callsubr
        </CharString>
        <CharString name="U">
          49 0 75 250 75 225 75 hstem
          90 87 192 87 vstem
          456 158 rmoveto
          386 vlineto
          115 -67 41 -115 vhcurveto
          -184 -300 -65 -75 65 -325 196 hlineto
          120 50 43 115 hvcurveto
          -87 -10 rmoveto
          -62 callsubr
          -118 250 118 75 -118 225 119 hlineto
          -59 callsubr
          endchar
        </CharString>
        <CharString name="Uacute">
          -107 callsubr
        </CharString>
        <CharString name="Ucircumflex">
          -107 callsubr
        </CharString>
        <CharString name="Udieresis">
          -107 callsubr
        </CharString>
        <CharString name="Ugrave">
          -107 callsubr
        </CharString>
        <CharString name="V">
          -72 0 76 624 -20 hstem
          85 87 vstem
          395 hmoveto
          76 -223 295 vlineto
          123 59 rlineto
          80 vlineto
          -123 -59 rlineto
          249 -87 -291 vlineto
          -60 -29 rlineto
          -80 vlineto
          60 29 rlineto
          -329 vlineto
          endchar
        </CharString>
        <CharString name="W">
          29 21 -21 142 75 278 75 130 -20 hstem
          85 87 177 87 vstem
          436 300 rmoveto
          114 -53 callsubr
          -92 130 -87 -700 87 142 94 hlineto
          110 60 48 110 hvcurveto
          -87 -10 rmoveto
          -51 -22 -22 -51 vhcurveto
          -104 278 104 hlineto
          50 23 -21 -51 hvcurveto
          endchar
        </CharString>
        <CharString name="X">
          -48 0 76 246 79 223 76 145 -20 hstem
          50 87 155 87 vstem
          79 -83 callsubr
          203 -675 rmoveto
          66 vlineto
          114 -58 51 -92 vhcurveto
          -20 hlineto
          -44 -28 32 40 hvcurveto
          76 vlineto
          40 33 35 50 vhcurveto
          143 76 -133 hlineto
          -115 -65 -47 callsubr
          -38 vlineto
          -114 64 -56 96 vhcurveto
          20 hlineto
          43 19 -29 -38 hvcurveto
          -104 vlineto
          -40 -33 -35 -50 vhcurveto
          -142 -76 132 hlineto
          115 65 -69 callsubr
          endchar
        </CharString>
        <CharString name="Y">
          9 -48 callsubr
          161 -20 hstem
          199 90 vstem
          269 726 rmoveto
          132 115 rlineto
          -111 hlineto
          -104 -115 rlineto
          285 -26 rmoveto
          -91 hlineto
          -132 -291 -132 291 rlineto
          -96 hlineto
          179 -375 rlineto
          -325 90 325 vlineto
          endchar
        </CharString>
        <CharString name="Yacute">
          -107 callsubr
        </CharString>
        <CharString name="Ydieresis">
          -107 callsubr
        </CharString>
        <CharString name="Z">
          -46 0 74 552 74 145 -20 hstem
          72 -83 callsubr
          222 -233 rmoveto
          88 -323 -74 235 vlineto
          -258 -538 rlineto
          -88 336 74 -247 vlineto
          endchar
        </CharString>
        <CharString name="Zcaron">
          -107 callsubr
        </CharString>
        <CharString name="a">
          -72 -6 -68 callsubr
          122 -99 callsubr
        </CharString>
        <CharString name="aacute">
          -107 callsubr
        </CharString>
        <CharString name="acircumflex">
          -107 callsubr
        </CharString>
        <CharString name="acute">
          -107 callsubr
        </CharString>
        <CharString name="adieresis">
          -107 callsubr
        </CharString>
        <CharString name="ae">
          -107 callsubr
        </CharString>
        <CharString name="agrave">
          -107 callsubr
        </CharString>
        <CharString name="ampersand">
          -237 -200 90 hstem
          76 95 vstem
          76 -110 rmoveto
          -90 95 90 vlineto
          endchar
        </CharString>
        <CharString name="approxequal">
          -107 callsubr
        </CharString>
        <CharString name="aring">
          -107 callsubr
        </CharString>
        <CharString name="asciicircum">
          318 -170 75 116 -94 callsubr
          170 85 hintmask 11101111
          494 -87 callsubr
          hintmask 11110111
          -103 callsubr
          170 -490 -57 callsubr
          -405 680 -93 callsubr
        </CharString>
        <CharString name="asciitilde">
          205 222 -21 94 75 94 -20 hstem
          607 333 rmoveto
          -248 131 rlineto
          -94 -279 -75 279 -94 vlineto
          endchar
        </CharString>
        <CharString name="asterisk">
          -19 619 -21 147 -20 hstem
          258 745 -58 callsubr
          297 147 -58 callsubr
          endchar
        </CharString>
        <CharString name="at">
          318 0 67 237 50 140 49 90 67 hstem
          105 77 127 56 94 59 100 77 vstem
          695 170 rmoveto
          360 vlineto
          115 -68 55 -100 vhcurveto
          -254 hlineto
          -100 -68 -55 -115 hvcurveto
          -360 vlineto
          -114 68 -56 100 vhcurveto
          254 hlineto
          100 68 -69 callsubr
          -77 -19 rmoveto
          -40 -29 -44 -62 vhcurveto
          -254 hlineto
          -61 -30 44 40 hvcurveto
          398 vlineto
          40 30 44 61 vhcurveto
          254 hlineto
          60 31 -44 -40 hvcurveto
          -100 -154 rmoveto
          62 vlineto
          60 -36 26 -66 vhcurveto
          -107 -384 56 145 59 hlineto
          59 35 32 59 hvcurveto
          -59 -1 rmoveto
          -28 -13 -12 -30 vhcurveto
          -51 140 51 hlineto
          30 13 -9 -28 hvcurveto
          endchar
        </CharString>
        <CharString name="atilde">
          -107 callsubr
        </CharString>
        <CharString name="b">
          -72 0 -65 callsubr
          hmoveto
          -81 callsubr
        </CharString>
        <CharString name="backslash">
          -104 callsubr
        </CharString>
        <CharString name="bar">
          -51 callsubr
          61 508 rmoveto
          -350 vlineto
          335 175 rlineto
          endchar
        </CharString>
        <CharString name="braceleft">
          -51 callsubr
          395 158 rmoveto
          350 vlineto
          -335 -175 rlineto
          endchar
        </CharString>
        <CharString name="braceright">
          205 223 -21 94 75 94 -20 hstem
          81 333 rmoveto
          248 -131 rlineto
          94 279 75 -279 94 vlineto
          endchar
        </CharString>
        <CharString name="bracketleft">
          99 21 -94 callsubr
          hintmask 11011100
          581 625 rmoveto
          75 -112 vlineto
          hintmask 11101100
          -103 callsubr
          121 75 -121 95 vlineto
          hintmask 11011100
          -88 callsubr
          -120 -35 rmoveto
          -90 -185 85 vlineto
          hintmask 11101100
          -92 callsubr
          endchar
        </CharString>
        <CharString name="bracketright">
          -104 callsubr
        </CharString>
        <CharString name="breve">
          -107 callsubr
        </CharString>
        <CharString name="brokenbar">
          -107 callsubr
        </CharString>
        <CharString name="bullet">
          -107 callsubr
        </CharString>
        <CharString name="c">
          -72 0 -64 callsubr
          hmoveto
          -98 callsubr
        </CharString>
        <CharString name="caron">
          -107 callsubr
        </CharString>
        <CharString name="ccedilla">
          -107 callsubr
        </CharString>
        <CharString name="cedilla">
          -107 callsubr
        </CharString>
        <CharString name="cent">
          -107 callsubr
        </CharString>
        <CharString name="circumflex">
          -107 callsubr
        </CharString>
        <CharString name="colon">
          -107 callsubr
        </CharString>
        <CharString name="comma">
          -99 600 -21 135 -20 hstem
          35 714 -96 callsubr
        </CharString>
        <CharString name="copyright">
          -107 callsubr
        </CharString>
        <CharString name="currency">
          -106 callsubr
        </CharString>
        <CharString name="d">
          -72 0 -78 callsubr
          119 -102 callsubr
        </CharString>
        <CharString name="dagger">
          148 21 -21 480 -20 hstem
          555 hmoveto
          240 -240 240 -240 -480 vlineto
          480 360 rmoveto
          120 -120 -120 vlineto
          endchar
        </CharString>
        <CharString name="daggerdbl">
          -107 callsubr
        </CharString>
        <CharString name="degree">
          -107 callsubr
        </CharString>
        <CharString name="dieresis">
          -107 callsubr
        </CharString>
        <CharString name="divide">
          -107 callsubr
        </CharString>
        <CharString name="dollar">
          -192 -89 -21 920 -20 hstem
          105 80 vstem
          185 -110 rmoveto
          360 -80 -360 vlineto
          80 560 rmoveto
          360 -80 -360 vlineto
          endchar
        </CharString>
        <CharString name="dotaccent">
          -107 callsubr
        </CharString>
        <CharString name="dotlessi">
          -107 callsubr
        </CharString>
        <CharString name="dotmath">
          -107 callsubr
        </CharString>
        <CharString name="e">
          -72 21 -71 callsubr
          117 -90 callsubr
        </CharString>
        <CharString name="eacute">
          -107 callsubr
        </CharString>
        <CharString name="ecircumflex">
          -107 callsubr
        </CharString>
        <CharString name="edieresis">
          -107 callsubr
        </CharString>
        <CharString name="egrave">
          -107 callsubr
        </CharString>
        <CharString name="eight">
          4 0 75 248 75 227 75 hstemhm
          63 87 -75 87 163 87 -75 87 hintmask 11110010
          424 158 rmoveto
          84 vlineto
          60 -23 40 -42 23 vhcurveto
          hintmask 11101100
          34 24 19 39 53 vvcurveto
          63 vlineto
          110 -62 46 -100 vhcurveto
          -13 hlineto
          -100 -62 -46 -110 hvcurveto
          -63 vlineto
          -53 19 -39 34 -24 vhcurveto
          hintmask 11110010
          -42 -23 -23 -40 -60 vvcurveto
          -84 vlineto
          -110 50 -48 120 vhcurveto
          21 -70 callsubr
          -87 93 rmoveto
          -103 vlineto
          -62 callsubr
          -47 hlineto
          -46 -20 24 49 hvcurveto
          103 vlineto
          44 30 28 43 vhcurveto
          41 hlineto
          -59 callsubr
          -83 374 rmoveto
          hintmask 11101100
          50 21 -21 -51 hvcurveto
          -82 vlineto
          -45 -31 -28 -40 vhcurveto
          -27 hlineto
          -37 2 -28 28 43 vvcurveto
          82 vlineto
          48 18 22 45 2 vhcurveto
          endchar
        </CharString>
        <CharString name="ellipsis">
          -107 callsubr
        </CharString>
        <CharString name="emdash">
          -107 callsubr
        </CharString>
        <CharString name="endash">
          -107 callsubr
        </CharString>
        <CharString name="equal">
          68 91 -21 105 75 125 75 105 -20 hstem
          465 375 rmoveto
          75 -65 vlineto
          65 105 rlineto
          -80 hlineto
          -65 -105 rlineto
          -235 -75 189 hlineto
          -78 -125 rlineto
          -111 -75 65 hlineto
          -65 -105 rlineto
          80 hlineto
          65 105 rlineto
          235 75 -189 hlineto
          78 125 rlineto
          endchar
        </CharString>
        <CharString name="eth">
          -107 callsubr
        </CharString>
        <CharString name="exclam">
          68 155 75 125 75 85 75 -36 75 hstemhm
          hintmask 11010000
          465 155 -79 callsubr
          380 200 -79 callsubr
          163 vmoveto
          19 28 40 17 35 hhcurveto
          hintmask 11100000
          56 53 -39 56 hhcurveto
          37 45 13 20 30 hvcurveto
          78 vlineto
          -19 -28 -40 -17 -35 hhcurveto
          hintmask 11010000
          -52 -59 39 -54 hhcurveto
          -29 -37 -5 -28 -46 hvcurveto
          endchar
        </CharString>
        <CharString name="exclamdown">
          -107 callsubr
        </CharString>
        <CharString name="f">
          -72 0 -72 callsubr
          119 -97 callsubr
        </CharString>
        <CharString name="fi">
          -107 callsubr
        </CharString>
        <CharString name="five">
          -82 -170 75 259 75 201 75 hstem
          64 85 109 87 vstem
          345 -12 rmoveto
          95 vlineto
          111 -68 45 -97 vhcurveto
          -31 201 181 75 -266 -351 121 hlineto
          -59 callsubr
          -114 vlineto
          -62 callsubr
          -130 -75 121 -70 callsubr
          endchar
        </CharString>
        <CharString name="fl">
          -107 callsubr
        </CharString>
        <CharString name="florin">
          -107 callsubr
        </CharString>
        <CharString name="four">
          -49 -149 -21 170 73 442 -20 hstem
          260 82 vstem
          412 hmoveto
          73 -70 199 -82 -199 -117 vlineto
          96 442 rlineto
          -81 hlineto
          -99 -431 rlineto
          -84 200 -170 83 170 vlineto
          endchar
        </CharString>
        <CharString name="fraction">
          -107 callsubr
        </CharString>
        <CharString name="g">
          -72 0 -75 callsubr
          128 -101 callsubr
        </CharString>
        <CharString name="germandbls">
          -107 callsubr
        </CharString>
        <CharString name="grave">
          -192 256 -21 155 -20 hstem
          220 235 rmoveto
          155 -150 -155 vlineto
          endchar
        </CharString>
        <CharString name="greater">
          -55 callsubr
          280 rmoveto
          105 vlineto
          -380 179 rlineto
          -92 vlineto
          308 -136 -308 -117 rlineto
          -94 vlineto
          380 -125 -79 callsubr
          endchar
        </CharString>
        <CharString name="greaterequal">
          -107 callsubr
        </CharString>
        <CharString name="guillemotleft">
          -107 callsubr
        </CharString>
        <CharString name="guillemotright">
          -107 callsubr
        </CharString>
        <CharString name="guilsinglleft">
          -107 callsubr
        </CharString>
        <CharString name="guilsinglright">
          -107 callsubr
        </CharString>
        <CharString name="h">
          -72 21 -21 430 65 hstem
          329 414 -76 callsubr
        </CharString>
        <CharString name="hungarumlaut">
          -107 callsubr
        </CharString>
        <CharString name="hyphen">
          -77 callsubr
        </CharString>
        <CharString name="i">
          -72 0 -82 callsubr
          119 -105 callsubr
        </CharString>
        <CharString name="iacute">
          -107 callsubr
        </CharString>
        <CharString name="icircumflex">
          -107 callsubr
        </CharString>
        <CharString name="idieresis">
          -107 callsubr
        </CharString>
        <CharString name="igrave">
          -107 callsubr
        </CharString>
        <CharString name="infinity">
          -107 callsubr
        </CharString>
        <CharString name="integral">
          -107 callsubr
        </CharString>
        <CharString name="j">
          -72 1 -73 callsubr
          368 -100 callsubr
        </CharString>
        <CharString name="k">
          68 275 75 hstem
          465 275 -79 callsubr
          endchar
        </CharString>
        <CharString name="l">
          72 0 75 352 73 hstem
          124 85 125 85 vstem
          209 hmoveto
          427 125 -327 -63 callsubr
          -9 9 21 hvcurveto
          322 90 73 -464 -73 79 -427 vlineto
          endchar
        </CharString>
        <CharString name="less">
          -55 callsubr
          125 rmoveto
          94 vlineto
          -308 117 308 136 rlineto
          92 vlineto
          -380 -179 rlineto
          -105 vlineto
          380 -280 -79 callsubr
          endchar
        </CharString>
        <CharString name="lessequal">
          -107 callsubr
        </CharString>
        <CharString name="logicaland">
          -107 callsubr
        </CharString>
        <CharString name="logicalnot">
          -107 callsubr
        </CharString>
        <CharString name="lozenge">
          -107 callsubr
        </CharString>
        <CharString name="lslash">
          -107 callsubr
        </CharString>
        <CharString name="m">
          -12 -54 callsubr
          65 -60 callsubr
          65 170 rmoveto
          -86 callsubr
          360 vlineto
          114 -63 56 -115 -52 callsubr
          33 -35 -40 hvcurveto
          -109 -56 callsubr
          256 85 rmoveto
          -214 -84 callsubr
          148 -49 callsubr
        </CharString>
        <CharString name="macron">
          -107 callsubr
        </CharString>
        <CharString name="minus">
          -107 callsubr
        </CharString>
        <CharString name="mu">
          -107 callsubr
        </CharString>
        <CharString name="multiply">
          -107 callsubr
        </CharString>
        <CharString name="n">
          -157 -235 75 905 75 hstem
          116 85 vstem
          -10 -160 -74 callsubr
          840 vlineto
          -88 callsubr
          96 75 -112 -80 callsubr
          -840 -57 callsubr
          endchar
        </CharString>
        <CharString name="nine">
          -29 -170 76 181 75 278 75 hstem
          50 -60 callsubr
          50 345 rmoveto
          -98 vlineto
          -114 55 -46 113 vhcurveto
          88 -106 hlineto
          -40 -33 -35 -50 vhcurveto
          -115 -76 105 hlineto
          115 63 -69 callsubr
          345 vlineto
          114 -73 56 -85 vhcurveto
          -25 hlineto
          -85 -73 -47 callsubr
          158 -183 rmoveto
          -50 -23 26 40 hvcurveto
          136 vlineto
          40 28 36 50 vhcurveto
          15 hlineto
          50 28 -36 -40 hvcurveto
          -202 vlineto
          endchar
        </CharString>
        <CharString name="notequal">
          -107 callsubr
        </CharString>
        <CharString name="ntilde">
          -107 callsubr
        </CharString>
        <CharString name="numbersign">
          28 0 75 625 -20 hstem
          485 hmoveto
          -171 700 rlineto
          -111 hlineto
          -178 -700 rlineto
          352 75 rmoveto
          -244 hlineto
          125 550 rlineto
          endchar
        </CharString>
        <CharString name="o">
          -50 callsubr
          228 86 vstem
          314 620 rmoveto
          -86 -363 hlineto
          -170 136 rlineto
          -102 vlineto
          213 -163 212 163 rlineto
          102 vlineto
          -169 -135 rlineto
          endchar
        </CharString>
        <CharString name="oacute">
          -107 callsubr
        </CharString>
        <CharString name="ocircumflex">
          -107 callsubr
        </CharString>
        <CharString name="odieresis">
          -107 callsubr
        </CharString>
        <CharString name="oe">
          -107 callsubr
        </CharString>
        <CharString name="ogonek">
          -107 callsubr
        </CharString>
        <CharString name="ograve">
          -107 callsubr
        </CharString>
        <CharString name="one">
          -72 0 75 440 -20 hstem
          183 85 vstem
          367 hmoveto
          75 -99 440 -95 vlineto
          -121 -50 rlineto
          -80 vlineto
          131 52 rlineto
          -362 -121 -75 vlineto
          endchar
        </CharString>
        <CharString name="onehalf">
          -107 callsubr
        </CharString>
        <CharString name="onequarter">
          -107 callsubr
        </CharString>
        <CharString name="onesuperior">
          -107 callsubr
        </CharString>
        <CharString name="ordfeminine">
          -107 callsubr
        </CharString>
        <CharString name="ordmasculine">
          -107 callsubr
        </CharString>
        <CharString name="oslash">
          -107 callsubr
        </CharString>
        <CharString name="otilde">
          -107 callsubr
        </CharString>
        <CharString name="p">
          58 179 -21 171 82 172 -20 hstem
          521 329 rmoveto
          82 -360 vlineto
          136 172 rlineto
          -105 hlineto
          -163 -213 163 -212 rlineto
          105 hlineto
          -135 171 rlineto
          endchar
        </CharString>
        <CharString name="paragraph">
          28 21 -21 374 68 188 70 hstem
          51 81 92 83 55 80 vstem
          307 hmoveto
          442 -100 vlineto
          -50 -25 25 40 hvcurveto
          53 vlineto
          40 25 30 50 vhcurveto
          100 70 -89 hlineto
          -115 -52 -46 -114 hvcurveto
          -13 vlineto
          -115 52 -38 115 vhcurveto
          6 -374 hlineto
          218 hmoveto
          700 -80 -700 vlineto
          endchar
        </CharString>
        <CharString name="parenleft">
          -237 610 90 hstem
          75 95 vstem
          170 610 rmoveto
          90 -95 -90 vlineto
          endchar
        </CharString>
        <CharString name="parenright">
          -222 548 46 107 46 hstem
          38 55 72 57 vstem
          222 633 rmoveto
          29 vlineto
          58 -39 27 -50 vhcurveto
          -6 hlineto
          -50 -39 -27 -58 hvcurveto
          -29 vlineto
          -57 39 -28 50 vhcurveto
          6 hlineto
          50 39 28 57 hvcurveto
          -57 -1 rmoveto
          -20 -7 -18 -25 vhcurveto
          -6 hlineto
          -25 -9 18 20 hvcurveto
          31 vlineto
          20 9 18 25 vhcurveto
          6 hlineto
          25 7 -18 -20 hvcurveto
          endchar
        </CharString>
        <CharString name="partialdiff">
          -107 callsubr
        </CharString>
        <CharString name="percent">
          -12 -48 callsubr
          hstem
          430 350 rmoveto
          -140 350 rlineto
          -110 hlineto
          -140 -350 138 -350 rlineto
          112 hlineto
          53 350 rmoveto
          -108 -280 -108 280 108 280 rlineto
          endchar
        </CharString>
        <CharString name="period">
          -237 21 -21 500 -20 hstem
          80 85 vstem
          165 hmoveto
          500 -85 -500 vlineto
          endchar
        </CharString>
        <CharString name="periodcentered">
          -107 callsubr
        </CharString>
        <CharString name="perthousand">
          -107 callsubr
        </CharString>
        <CharString name="pi">
          -107 callsubr
        </CharString>
        <CharString name="plus">
          -164 -180 67 173 -20 hstem
          75 74 vstem
          252 -180 rmoveto
          67 -71 vlineto
          -21 -11 6 22 hvcurveto
          145 -74 -145 vlineto
          -88 53 -7 35 vhcurveto
          endchar
        </CharString>
        <CharString name="plusminus">
          -107 callsubr
        </CharString>
        <CharString name="product">
          -107 callsubr
        </CharString>
        <CharString name="q">
          58 182 -61 callsubr
          131 574 rmoveto
          -60 -60 256 -256 -217 -24 73 -73 266 35 35 265 -73 73 -25 -216 rlineto
          endchar
        </CharString>
        <CharString name="question">
          -106 callsubr
        </CharString>
        <CharString name="questiondown">
          -107 callsubr
        </CharString>
        <CharString name="quotedbl">
          28 170 79 -39 79 50 79 -39 79 hstemhm
          hintmask 10010000
          85 343 rmoveto
          -89 callsubr
          hintmask 01010000
          -67 callsubr
          -249 vmoveto
          -89 callsubr
          hintmask 01100000
          -67 callsubr
          endchar
        </CharString>
        <CharString name="quotedblbase">
          -107 callsubr
        </CharString>
        <CharString name="quotedblleft">
          -107 callsubr
        </CharString>
        <CharString name="quotedblright">
          -107 callsubr
        </CharString>
        <CharString name="quoteleft">
          -107 callsubr
        </CharString>
        <CharString name="quoteright">
          -107 callsubr
        </CharString>
        <CharString name="quotesinglbase">
          -107 callsubr
        </CharString>
        <CharString name="quotesingle">
          -107 callsubr
        </CharString>
        <CharString name="r">
          58 188 -61 callsubr
          485 520 rmoveto
          -60 60 -256 -256 -24 217 -73 -73 35 -266 265 -35 73 73 -216 25 rlineto
          endchar
        </CharString>
        <CharString name="radical">
          -107 callsubr
        </CharString>
        <CharString name="registered">
          -107 callsubr
        </CharString>
        <CharString name="ring">
          -107 callsubr
        </CharString>
        <CharString name="s">
          298 -48 callsubr
          hstem
          690 hmoveto
          700 -600 -700 vlineto
          endchar
        </CharString>
        <CharString name="scaron">
          -107 callsubr
        </CharString>
        <CharString name="section">
          -107 callsubr
        </CharString>
        <CharString name="semicolon">
          -107 callsubr
        </CharString>
        <CharString name="seven">
          -107 -149 -21 610 75 hstem
          341 418 rmoveto
          97 -305 -75 224 vlineto
          -167 -610 rlineto
          87 hlineto
          endchar
        </CharString>
        <CharString name="six">
          -29 -54 callsubr
          64 -60 callsubr
          405 170 rmoveto
          110 vlineto
          114 -55 46 -113 vhcurveto
          -88 109 hlineto
          40 33 35 50 vhcurveto
          125 76 -115 hlineto
          -115 -63 -47 callsubr
          -360 vlineto
          -86 callsubr
          -158 195 rmoveto
          50 23 -26 -40 hvcurveto
          -148 -84 callsubr
          214 vlineto
          endchar
        </CharString>
        <CharString name="slash">
          -79 -21 910 -20 hstem
          315 810 rmoveto
          -80 hlineto
          -320 -910 rlineto
          80 hlineto
          endchar
        </CharString>
        <CharString name="space">
          -222 endchar
        </CharString>
        <CharString name="sterling">
          -107 callsubr
        </CharString>
        <CharString name="summation">
          -107 callsubr
        </CharString>
        <CharString name="t">
          298 -149 -21 1020 -20 hstem
          -66 callsubr
          endchar
        </CharString>
        <CharString name="thorn">
          -107 callsubr
        </CharString>
        <CharString name="three">
          -87 -170 75 243 75 217 75 hstemhm
          236 87 -77 87 hintmask 11101000
          333 -12 rmoveto
          79 vlineto
          60 -23 40 -42 23 vhcurveto
          hintmask 11110000
          34 24 21 39 53 vvcurveto
          53 -53 callsubr
          -106 -75 118 hlineto
          50 23 -21 -51 hvcurveto
          -72 vlineto
          -45 -33 -28 -40 vhcurveto
          -87 -75 97 hlineto
          hintmask 11101000
          -59 callsubr
          -98 vlineto
          -62 callsubr
          -127 -75 118 -70 callsubr
          endchar
        </CharString>
        <CharString name="threequarters">
          -107 callsubr
        </CharString>
        <CharString name="threesuperior">
          -107 callsubr
        </CharString>
        <CharString name="tilde">
          -107 callsubr
        </CharString>
        <CharString name="trademark">
          -107 callsubr
        </CharString>
        <CharString name="two">
          -72 0 76 348 76 hstem
          257 87 vstem
          360 hmoveto
          76 -205 vlineto
          118 104 rlineto
          66 58 5 30 70 vvcurveto
          22 vlineto
          105 -63 35 -102 -52 callsubr
          18 -25 -30 hvcurveto
          -40 vlineto
          -42 -9 -18 -36 -32 vhcurveto
          -168 -149 rlineto
          -88 vlineto
          endchar
        </CharString>
        <CharString name="twosuperior">
          -107 callsubr
        </CharString>
        <CharString name="u">
          21 0 75 310 75 166 74 50 -20 hstem
          78 -60 callsubr
          277 622 rmoveto
          35 -10 22 -31 -32 vvcurveto
          -89 -56 callsubr
          -130 vlineto
          -86 callsubr
          360 vlineto
          86 -36 53 -67 21 vhcurveto
          36 60 rlineto
          -82 hlineto
          -30 -50 rlineto
          -114 -74 71 hlineto
          -35 -60 rlineto
          82 hlineto
          90 -181 rmoveto
          -234 -84 callsubr
          168 -49 callsubr
        </CharString>
        <CharString name="uacute">
          -107 callsubr
        </CharString>
        <CharString name="ucircumflex">
          -107 callsubr
        </CharString>
        <CharString name="udieresis">
          -107 callsubr
        </CharString>
        <CharString name="ugrave">
          -107 callsubr
        </CharString>
        <CharString name="underscore">
          28 -170 75 116 -21 425 75 125 75 hstem
          91 85 170 85 vstem
          220 -87 callsubr
          -60 -44 -40 -70 hvcurveto
          -90 -65 -75 65 -85 callsubr
          170 -490 -57 callsubr
          endchar
        </CharString>
        <CharString name="uni00A0">
          -222 endchar
        </CharString>
        <CharString name="uni00AD">
          -77 callsubr
        </CharString>
        <CharString name="uni2219">
          -107 callsubr
        </CharString>
        <CharString name="uni2224">
          -107 callsubr
        </CharString>
        <CharString name="uni25AF">
          -91 callsubr
        </CharString>
        <CharString name="v">
          -211 0 75 625 -20 hstem
          85 85 vstem
          225 hmoveto
          75 -20 vlineto
          -26 -9 9 21 hvcurveto
          283 vlineto
          61 40 rlineto
          80 vlineto
          -61 -41 rlineto
          233 -85 -289 vlineto
          -50 -33 rlineto
          -78 vlineto
          50 32 rlineto
          -232 vlineto
          -76 46 -24 39 vhcurveto
          endchar
        </CharString>
        <CharString name="w">
          22 -149 -21 170 75 350 75 200 -20 hstem
          80 85 176 85 vstem
          165 -170 rmoveto
          870 -85 -870 vlineto
          346 330 rmoveto
          180 vlineto
          115 -55 45 -115 vhcurveto
          -16 hlineto
          -60 -49 -29 -72 -23 hvcurveto
          57 -29 rlineto
          20 15 35 50 vhcurveto
          36 hlineto
          50 25 -25 -40 hvcurveto
          -220 vlineto
          -40 -25 -25 -50 vhcurveto
          -131 -75 121 hlineto
          115 55 46 114 hvcurveto
          endchar
        </CharString>
        <CharString name="x">
          -85 0 75 143 81 126 75 214 -20 hstem
          59 85 114 85 vstem
          343 125 rmoveto
          45 vlineto
          85 -48 44 -89 vhcurveto
          -14 hlineto
          -25 -23 13 32 hvcurveto
          36 vlineto
          30 23 15 32 vhcurveto
          124 75 -114 hlineto
          -95 -55 -33 -93 hvcurveto
          -29 vlineto
          -90 47 -37 92 vhcurveto
          17 hlineto
          28 15 -15 -30 hvcurveto
          -53 vlineto
          -30 -20 -15 -35 vhcurveto
          -139 -75 129 hlineto
          95 55 39 86 hvcurveto
          -289 589 -96 callsubr
        </CharString>
        <CharString name="y">
          -19 -175 75 121 -21 500 -20 235 -20 hstem
          279 580 rmoveto
          127 135 rlineto
          -109 hlineto
          -104 -135 rlineto
          235 -80 rmoveto
          -87 hlineto
          -98 -413 -116 413 rlineto
          -92 hlineto
          155 -500 rlineto
          20 hlineto
          -16 -55 rlineto
          -29 -8 -12 -16 -20 hhcurveto
          -20 -18 2 2 -14 hvcurveto
          -73 vlineto
          -2 12 24 -4 21 hhcurveto
          81 22 53 78 21 hvcurveto
          endchar
        </CharString>
        <CharString name="yacute">
          -107 callsubr
        </CharString>
        <CharString name="ydieresis">
          -107 callsubr
        </CharString>
        <CharString name="yen">
          -107 callsubr
        </CharString>
        <CharString name="z">
          -79 0 74 352 74 214 -20 hstem
          353 411 rmoveto
          89 -288 -74 197 vlineto
          -217 -346 rlineto
          -80 298 74 -206 vlineto
          -77 640 -96 callsubr
        </CharString>
        <CharString name="zcaron">
          -107 callsubr
        </CharString>
        <CharString name="zero">
          -6 0 75 350 75 hstem
          59 85 188 85 vstem
          417 170 rmoveto
          160 vlineto
          114 -62 56 -106 vhcurveto
          -12 hlineto
          -105 -73 -47 callsubr
          -160 vlineto
          -114 74 -56 104 vhcurveto
          12 hlineto
          105 63 -69 callsubr
          -85 -19 rmoveto
          -40 -33 -36 -50 vhcurveto
          -22 hlineto
          -50 -33 36 40 hvcurveto
          198 vlineto
          40 33 36 50 vhcurveto
          22 hlineto
          50 33 -36 -40 hvcurveto
          endchar
        </CharString>
</ttFont>
